<?xml version="1.0" encoding="UTF-8" standalone="no"?>
<svg
   width="24px"
   height="24px"
   viewBox="-2 -2 24 24"
   preserveAspectRatio="xMinYMin"
   class="jam jam-github"
   version="1.1"
   id="svg4"
   sodipodi:docname="github.svg"
   inkscape:version="1.2 (dc2aedaf03, 2022-05-15)"
   xmlns:inkscape="http://www.inkscape.org/namespaces/inkscape"
   xmlns:sodipodi="http://sodipodi.sourceforge.net/DTD/sodipodi-0.dtd"
   xmlns="http://www.w3.org/2000/svg"
   xmlns:svg="http://www.w3.org/2000/svg">
  <defs
     id="defs8" />
  <sodipodi:namedview
     id="namedview6"
     pagecolor="#505050"
     bordercolor="#ffffff"
     borderopacity="1"
     inkscape:showpageshadow="0"
     inkscape:pageopacity="0"
     inkscape:pagecheckerboard="1"
     inkscape:deskcolor="#505050"
     showgrid="false"
     inkscape:zoom="22.627417"
     inkscape:cx="10.915961"
     inkscape:cy="11.932427"
     inkscape:window-width="1920"
     inkscape:window-height="1011"
     inkscape:window-x="0"
     inkscape:window-y="0"
     inkscape:window-maximized="1"
     inkscape:current-layer="svg4" />
  <path
     d="M -1.9928156,-1.98154 -2,21.998842 l 8.0554444,0.0012 c 0.2286687,0 0.400772,-0.0084 0.51631,-0.02411 0.1344244,-0.02698 0.255754,-0.09876 0.3442065,-0.203631 0.114334,-0.120497 0.1721033,-0.295207 0.1721033,-0.524142 l -0.00843,-1.066363 c -0.00481,-0.679515 -0.00722,-1.21691 -0.00722,-1.614535 l -0.3610559,0.06265 C 6.482689,18.672091 6.1938443,18.690181 5.84362,18.685341 5.4785774,18.678541 5.1147,18.641931 4.7556383,18.575687 4.3734135,18.504999 4.0135896,18.343881 3.7061783,18.105734 3.3842287,17.861896 3.1441016,17.525662 3.0177651,17.141796 L 2.8613075,16.78032 C 2.7294359,16.495175 2.5637633,16.226958 2.3678645,15.981454 2.1440098,15.68866 1.9165445,15.491052 1.6866723,15.386224 l -0.1083164,-0.07832 c -0.075529,-0.05416 -0.1442288,-0.117283 -0.2045984,-0.187968 -0.057658,-0.06562 -0.1051279,-0.139541 -0.1408117,-0.219298 -0.031292,-0.07349 -0.00482,-0.133744 0.07823,-0.180736 0.084247,-0.0482 0.2346864,-0.07109 0.4549303,-0.07109 l 0.3129152,0.04819 c 0.208209,0.04096 0.4669657,0.166279 0.7738632,0.374732 0.310581,0.211988 0.5700205,0.490664 0.759421,0.815732 0.2407039,0.427747 0.5295486,0.754282 0.8689411,0.979602 0.3393926,0.224117 0.6811921,0.33738 1.0253988,0.33738 0.3442067,0 0.641476,-0.02651 0.8930117,-0.07832 C 6.6429035,17.075775 6.8792662,16.99649 7.1037156,16.88996 7.1975899,16.191104 7.4527364,15.651299 7.8703577,15.275362 7.329224,15.222262 6.7929124,15.128002 6.2660646,14.993422 5.7519122,14.852013 5.2574408,14.646791 4.7941601,14.382524 4.309436,14.118318 3.8812961,13.761324 3.534075,13.33183 3.2007,12.913721 2.9262976,12.365481 2.712071,11.68711 2.499048,11.007532 2.3919348,10.223127 2.3919348,9.3350987 c 0,-1.2639642 0.4116038,-2.3399607 1.2360147,-3.229194 C 3.2428232,5.1564253 3.2789288,4.090068 3.7374695,2.9104484 4.0407563,2.8152589 4.4896692,2.8863502 5.0842079,3.12131 5.6787466,3.3562701 6.1144208,3.5574921 6.3912302,3.7237714 6.6680398,3.8924608 6.8894874,4.0334367 7.0567766,4.1479044 8.0352095,3.8752946 9.0463525,3.7382641 10.061966,3.7406405 c 1.033822,0 2.035151,0.1361563 3.006391,0.4072639 l 0.59454,-0.375936 c 0.457316,-0.2749001 0.939689,-0.5056757 1.440613,-0.689216 0.553618,-0.2096567 0.97485,-0.2662882 1.26851,-0.172304 0.469373,1.1808247 0.510292,2.2459769 0.123959,3.1966612 0.82441,0.8880284 1.237217,1.9640249 1.237217,3.2291948 0,0.8880286 -0.107111,1.6748426 -0.321339,2.3580336 -0.213024,0.684398 -0.489833,1.232637 -0.829226,1.645926 -0.339392,0.413288 -0.761828,0.759101 -1.267306,1.042257 -0.505477,0.281953 -0.996514,0.485585 -1.471904,0.610898 -0.526809,0.135019 -1.063125,0.229678 -1.604292,0.283156 0.541584,0.469919 0.813579,1.210947 0.813579,2.22429 v 3.74731 c 0,0.177124 0.02528,0.320508 0.07823,0.430156 0.04917,0.106733 0.139516,0.188913 0.250332,0.227733 0.115543,0.04096 0.216634,0.06748 0.305695,0.07712 0.08906,0.012 0.382718,0.01566 0.382718,0.01566 h 7.86759 L 22,-1.9815387 c -4.860499,-0.049636 -16.4663231,0.018627 -23.9928073,0 z"
     id="path2"
     sodipodi:nodetypes="cccccccccccccccccccccccccscccccccsccsccccccccscscccssccccccc"
     style="stroke-width:1.20422;fill:#ffffff" />
</svg>
