<?xml version="1.0" encoding="UTF-8" standalone="no"?>
<!-- Generator: Adobe Illustrator 19.0.0, SVG Export Plug-In . SVG Version: 6.00 Build 0)  -->

<svg
   version="1.1"
   id="Layer_1"
   x="0px"
   y="0px"
   viewBox="0 0 24 24"
   xml:space="preserve"
   sodipodi:docname="linkedin.svg"
   width="24"
   height="24"
   inkscape:version="1.2 (dc2aedaf03, 2022-05-15)"
   xmlns:inkscape="http://www.inkscape.org/namespaces/inkscape"
   xmlns:sodipodi="http://sodipodi.sourceforge.net/DTD/sodipodi-0.dtd"
   xmlns="http://www.w3.org/2000/svg"
   xmlns:svg="http://www.w3.org/2000/svg"><defs
   id="defs41" /><sodipodi:namedview
   id="namedview39"
   pagecolor="#505050"
   bordercolor="#ffffff"
   borderopacity="1"
   inkscape:showpageshadow="0"
   inkscape:pageopacity="0"
   inkscape:pagecheckerboard="1"
   inkscape:deskcolor="#505050"
   showgrid="false"
   inkscape:zoom="8"
   inkscape:cx="92.125"
   inkscape:cy="15.375"
   inkscape:window-width="1920"
   inkscape:window-height="1011"
   inkscape:window-x="0"
   inkscape:window-y="0"
   inkscape:window-maximized="1"
   inkscape:current-layer="Layer_1" />
<g
   id="g6"
   transform="scale(0.05274725)"
   style="fill:#ffffff">
	<path
   style="clip-rule:evenodd;fill:#ffffff;fill-rule:evenodd"
   d="m 246.4,204.35 v -0.665 c -0.136,0.223 -0.324,0.446 -0.442,0.665 z"
   id="path2" />
	<path
   style="clip-rule:evenodd;fill:#ffffff;fill-rule:evenodd"
   d="M 0,0 V 455 H 455 V 0 Z M 141.522,378.002 H 74.016 V 174.906 h 67.506 z M 107.769,147.186 h -0.446 C 84.678,147.186 70,131.585 70,112.085 70,92.157 85.107,76.998 108.211,76.998 c 23.109,0 37.31,15.159 37.752,35.087 0,19.5 -14.643,35.101 -38.194,35.101 z M 385,378.002 H 317.476 V 269.345 c 0,-27.291 -9.756,-45.92 -34.195,-45.92 -18.664,0 -29.755,12.543 -34.641,24.693 -1.776,4.34 -2.24,10.373 -2.24,16.459 v 113.426 h -67.537 c 0,0 0.905,-184.043 0,-203.096 H 246.4 v 28.779 c 8.973,-13.807 24.986,-33.547 60.856,-33.547 44.437,0 77.744,29.02 77.744,91.398 z"
   id="path4" />
</g>
<g
   id="g8">
</g>
<g
   id="g10">
</g>
<g
   id="g12">
</g>
<g
   id="g14">
</g>
<g
   id="g16">
</g>
<g
   id="g18">
</g>
<g
   id="g20">
</g>
<g
   id="g22">
</g>
<g
   id="g24">
</g>
<g
   id="g26">
</g>
<g
   id="g28">
</g>
<g
   id="g30">
</g>
<g
   id="g32">
</g>
<g
   id="g34">
</g>
<g
   id="g36">
</g>
</svg>
