<svg xmlns="http://www.w3.org/2000/svg" xml:space="preserve" viewBox="0 0 16 16"><path fill="#fff" d="M0 0v16h16V0H0zm11.75 3c.62 0 1.14 0 1.14.02.01 0-.32.6-.72 1.3l-1.7 3-1 1.74c0 .02.14.3.36.69l1.07 1.87.73 1.3.04.07h-1.15L9.36 13l-.05-.09a91.54 91.54 0 0 1-1.18-2.05 216.87 216.87 0 0 1-1-1.78l.85-1.5L9.7 4.55c.48-.84.88-1.53.9-1.54 0-.01.53-.02 1.15-.02zM5.04 4.83h1.08l.1.17.27.48.54.95.37.67c.01.02-.18.36-.41.75l-.83 1.36-.43.71-.04.07H4.6l-1.1-.01.35-.6a613.3 613.3 0 0 0 1.36-2.26l-.12-.23-.34-.6a53.57 53.57 0 0 0-.6-1.06l-.2-.37c0-.02.44-.03 1.09-.03z"/></svg>