<svg class="jam jam-github" preserveAspectRatio="xMinYMin" viewBox="-2 -2 24 24"><path fill="#fff" d="M-2-2v24h8.6l.3-.2.2-.6v-2.6H4.8l-1-.5a2 2 0 0 1-.8-1l-.1-.3a4 4 0 0 0-.5-.8l-.7-.6h-.1l-.2-.3-.2-.2.1-.2h.8l.8.4.7.8.9 1c.3.2.7.3 1 .3h.9l.7-.3c.1-.7.4-1.2.8-1.6-.6 0-1.1-.2-1.6-.3l-1.5-.6a4.2 4.2 0 0 1-2-2.7 6 6 0 0 1-.4-2.4c0-1.2.4-2.3 1.2-3.2-.4-1-.3-2 .1-3.2.3 0 .8 0 1.4.2a9.5 9.5 0 0 1 2 1 11.1 11.1 0 0 1 6 0l.6-.3L15 3c.6-.2 1-.3 1.3-.2.4 1.2.5 2.3.1 3.2.8.9 1.2 2 1.2 3.2 0 1 0 1.7-.3 2.4-.2.7-.5 1.2-.8 1.6a3 3 0 0 1-1.3 1c-.5.4-1 .6-1.5.7l-1.6.3c.6.4.9 1.2.9 2.2v4.2l.3.2h.3l.4.1h7.8L22-2H-2z"/></svg>